<?xml version="1.0" encoding="utf-8"?>
<!-- Svg Vector Icons : http://www.onlinewebfonts.com/icon -->
<!DOCTYPE svg PUBLIC "-//W3C//DTD SVG 1.1//EN" "http://www.w3.org/Graphics/SVG/1.1/DTD/svg11.dtd">
<svg version="1.1" xmlns="http://www.w3.org/2000/svg" xmlns:xlink="http://www.w3.org/1999/xlink" x="0px" y="0px" viewBox="0 0 1000 1000" enable-background="new 0 0 1000 1000" xml:space="preserve">
<metadata> Svg Vector Icons : http://www.onlinewebfonts.com/icon </metadata>
<g><path d="M124.2,559.2v120.6c0,16.9,13.7,30.6,30.6,30.6c16.9,0,30.6-13.7,30.6-30.6V559.2c0-16.9-13.7-30.6-30.6-30.6C137.9,528.5,124.2,542.3,124.2,559.2L124.2,559.2z M811.3,559.2v120.6c0,16.9,13.7,30.6,30.6,30.6c16.9,0,30.6-13.7,30.6-30.6V559.2c0-16.9-13.7-30.6-30.6-30.6C825,528.5,811.3,542.3,811.3,559.2L811.3,559.2z M638.5,599.4v80.4c0,16.9,13.7,30.6,30.6,30.6c16.9,0,30.6-13.7,30.6-30.6v-80.4c0-16.9-13.7-30.6-30.6-30.6C652.2,568.8,638.5,582.5,638.5,599.4L638.5,599.4z M467.6,599.4v80.4c0,16.9,13.7,30.6,30.6,30.6c16.9,0,30.6-13.7,30.6-30.6v-80.4c0-16.9-13.7-30.6-30.6-30.6C481.3,568.8,467.6,582.5,467.6,599.4L467.6,599.4z M297,599.4v80.4c0,16.9,13.7,30.6,30.6,30.6c16.9,0,30.6-13.7,30.6-30.6v-80.4c0-16.9-13.7-30.6-30.6-30.6C310.7,568.8,297,582.5,297,599.4L297,599.4z M156.9,867.5H839c16.9,0,30.6-13.7,30.6-30.6S856,806.3,839,806.3H156.9c-16.9,0-30.6,13.7-30.6,30.6S140,867.5,156.9,867.5L156.9,867.5z"/><path d="M71.3,193.8h857.5v459.4H71.3V193.8z M928.8,132.5H71.3c-33.8,0-61.3,27.4-61.3,61.3v459.4c0,33.8,27.4,61.3,61.3,61.3h857.5c33.8,0,61.3-27.4,61.3-61.3V193.8C990,159.9,962.6,132.5,928.8,132.5L928.8,132.5z"/></g>
</svg>